<svg width="256" height="256" viewBox="0 0 256 256" fill="none" xmlns="http://www.w3.org/2000/svg">
<g clip-path="url(#clip0_1165_476)">
<g filter="url(#filter0_d_1165_476)">
<path d="M30.0731 164.565H78.944V189H5.6377V66.8228H78.944V91.2582H30.0731V115.694H66.7263V140.129H30.0731V164.565ZM78.6182 66.8228H151.925V79.0405H164.142V140.129H151.925V152.347H103.054V189H78.6182V66.8228ZM139.707 91.2582H103.054V127.911H139.707V91.2582ZM163.848 66.8228H237.155V79.0405H249.372V140.129H237.155V152.347H188.284V189H163.848V66.8228ZM224.937 91.2582H188.284V127.911H224.937V91.2582Z" fill="url(#paint0_linear_1165_476)"/>
</g>
</g>
<defs>
<filter id="filter0_d_1165_476" x="1.6377" y="63.8228" width="251.734" height="130.177" filterUnits="userSpaceOnUse" color-interpolation-filters="sRGB">
<feFlood flood-opacity="0" result="BackgroundImageFix"/>
<feColorMatrix in="SourceAlpha" type="matrix" values="0 0 0 0 0 0 0 0 0 0 0 0 0 0 0 0 0 0 127 0" result="hardAlpha"/>
<feOffset dy="1"/>
<feGaussianBlur stdDeviation="2"/>
<feComposite in2="hardAlpha" operator="out"/>
<feColorMatrix type="matrix" values="0 0 0 0 0 0 0 0 0 0 0 0 0 0 0 0 0 0 0.25 0"/>
<feBlend mode="normal" in2="BackgroundImageFix" result="effect1_dropShadow_1165_476"/>
<feBlend mode="normal" in="SourceGraphic" in2="effect1_dropShadow_1165_476" result="shape"/>
</filter>
<linearGradient id="paint0_linear_1165_476" x1="13.9969" y1="192.853" x2="256.391" y2="107.044" gradientUnits="userSpaceOnUse">
<stop stop-color="#4F46E5"/>
<stop offset="0.504808" stop-color="#B63D6E"/>
<stop offset="1" stop-color="#F59E0B"/>
</linearGradient>
<clipPath id="clip0_1165_476">
<rect width="256" height="256" fill="white"/>
</clipPath>
</defs>
</svg>
